<svg width="216" height="215" viewBox="0 0 216 215" fill="none" xmlns="http://www.w3.org/2000/svg">
<path d="M108.13 214.992C167.304 214.992 215.274 166.927 215.274 107.637C215.274 48.3469 167.304 0.282715 108.13 0.282715C48.9559 0.282715 0.985718 48.3469 0.985718 107.637C0.985718 166.927 48.9559 214.992 108.13 214.992Z" fill="#FF8F3B"/>
<mask id="mask0_1_14371" style="mask-type:luminance" maskUnits="userSpaceOnUse" x="0" y="0" width="216" height="215">
<path d="M108.13 214.992C167.304 214.992 215.274 166.927 215.274 107.637C215.274 48.3469 167.304 0.282715 108.13 0.282715C48.9559 0.282715 0.985718 48.3469 0.985718 107.637C0.985718 166.927 48.9559 214.992 108.13 214.992Z" fill="white"/>
</mask>
<g mask="url(#mask0_1_14371)">
<path d="M-8.16138 82.7313C-8.16138 82.7313 -5.40979 63.4697 14.2789 67.5865C33.9676 71.7033 129.213 84.1097 141.112 -18.6622" stroke="#331303" stroke-miterlimit="10"/>
<path d="M219.978 40.855C219.978 40.855 74.8323 40.3893 25.3782 189.508" stroke="#331303" stroke-miterlimit="10"/>
<path d="M229.014 107.637C229.014 107.637 98.0534 52.1251 102.181 220.953" stroke="#331303" stroke-miterlimit="10"/>
<path d="M184.598 220.971C184.598 220.971 137.003 20.9228 33.0194 4.41821" stroke="#331303" stroke-miterlimit="10"/>
</g>
<g opacity="0.08">
<path d="M203.357 58.4773C203.636 61.6813 203.822 64.904 203.822 68.1826C203.822 127.476 155.855 175.537 96.6775 175.537C55.1993 175.537 19.2428 151.898 1.43188 117.342C6.34011 172.091 52.206 214.992 108.13 214.992C167.308 214.992 215.274 166.931 215.274 107.637C215.274 89.9217 210.961 73.2122 203.376 58.4773H203.357Z" fill="#231F20"/>
</g>
<path d="M76.1709 98.2485C76.1709 112.816 69.9798 124.607 62.3386 124.607C54.6974 124.607 48.5249 112.797 48.5249 98.2485C48.5249 83.6999 54.716 71.8896 62.3386 71.8896C69.9612 71.8896 76.1709 83.6999 76.1709 98.2485Z" fill="#231F20"/>
<path d="M73.0474 88.152C73.0474 94.4297 70.4446 99.4966 67.2468 99.4966C64.049 99.4966 61.4462 94.4111 61.4462 88.152C61.4462 81.8929 64.049 76.8074 67.2468 76.8074C70.4446 76.8074 73.0474 81.8929 73.0474 88.152Z" fill="white"/>
<path d="M59.2895 95.3984C59.2895 97.671 58.3413 99.5152 57.1886 99.5152C56.0359 99.5152 55.0878 97.671 55.0878 95.3984C55.0878 93.1257 56.0174 91.3002 57.1886 91.3002C58.3599 91.3002 59.2895 93.1444 59.2895 95.3984Z" fill="white"/>
<path d="M65.6665 105.402C65.6665 107.674 64.7183 109.519 63.5656 109.519C62.4129 109.519 61.4647 107.674 61.4647 105.402C61.4647 103.129 62.4129 101.304 63.5656 101.304C64.7183 101.304 65.6665 103.148 65.6665 105.402Z" fill="white"/>
<path d="M168.163 98.2485C168.163 112.816 161.972 124.607 154.331 124.607C146.689 124.607 140.498 112.797 140.498 98.2485C140.498 83.6999 146.689 71.8896 154.331 71.8896C161.972 71.8896 168.163 83.6999 168.163 98.2485Z" fill="#231F20"/>
<path d="M165.039 88.152C165.039 94.4297 162.437 99.4966 159.239 99.4966C156.041 99.4966 153.438 94.4111 153.438 88.152C153.438 81.8929 156.041 76.8074 159.239 76.8074C162.437 76.8074 165.039 81.8929 165.039 88.152Z" fill="white"/>
<path d="M151.282 95.3984C151.282 97.671 150.333 99.5152 149.181 99.5152C148.028 99.5152 147.08 97.671 147.08 95.3984C147.08 93.1257 148.028 91.3002 149.181 91.3002C150.333 91.3002 151.282 93.1444 151.282 95.3984Z" fill="white"/>
<path d="M157.64 105.402C157.64 107.674 156.692 109.519 155.539 109.519C154.386 109.519 153.438 107.674 153.438 105.402C153.438 103.129 154.386 101.304 155.539 101.304C156.692 101.304 157.64 103.148 157.64 105.402Z" fill="white"/>
<path d="M67.2654 127.737C67.2654 130.55 62.0783 132.841 55.6641 132.841C49.25 132.841 44.0629 130.55 44.0629 127.737C44.0629 124.924 49.25 122.633 55.6641 122.633C62.0783 122.633 67.2654 124.924 67.2654 127.737Z" fill="#D96282"/>
<path d="M172.625 127.737C172.625 130.55 167.438 132.841 161.024 132.841C154.61 132.841 149.422 130.55 149.422 127.737C149.422 124.924 154.61 122.633 161.024 122.633C167.438 122.633 172.625 124.924 172.625 127.737Z" fill="#D96282"/>
<path d="M59.2895 57.9557C59.2895 57.9557 47.8184 55.6272 44.9366 67.1767" stroke="#231F20" stroke-width="2.03" stroke-linecap="round" stroke-linejoin="round"/>
<path d="M155.558 57.9557C155.558 57.9557 167.029 55.6272 169.911 67.1767" stroke="#231F20" stroke-width="2.03" stroke-linecap="round" stroke-linejoin="round"/>
<path d="M109.376 156.033C96.1941 156.033 85.4667 146.663 85.4667 135.151C85.4667 130.364 87.4002 128.035 91.3789 128.035C93.2938 128.035 95.5434 128.557 98.1649 129.153C101.511 129.935 105.323 130.811 109.376 130.811C113.429 130.811 117.221 129.935 120.568 129.153C123.171 128.557 125.439 128.035 127.354 128.035C131.333 128.035 133.266 130.364 133.266 135.151C133.266 146.663 122.539 156.033 109.376 156.033Z" fill="white"/>
<path d="M127.354 129.525C130.143 129.525 131.797 130.811 131.797 135.17C131.797 145.881 121.758 154.562 109.376 154.562C96.9936 154.562 86.9541 145.881 86.9541 135.17C86.9541 130.829 88.6087 129.525 91.3975 129.525C95.4877 129.525 102.013 132.301 109.376 132.301C116.738 132.301 123.264 129.525 127.354 129.525ZM127.354 126.563C125.272 126.563 122.948 127.104 120.233 127.718C116.961 128.482 113.243 129.339 109.376 129.339C105.509 129.339 101.772 128.482 98.4996 127.718C95.8037 127.104 93.4612 126.563 91.3789 126.563C84.9461 126.563 83.9794 131.947 83.9794 135.17C83.9794 147.502 95.3761 157.524 109.357 157.524C123.338 157.524 134.735 147.502 134.735 135.17C134.735 131.966 133.768 126.563 127.335 126.563H127.354Z" fill="#231F20"/>
<path d="M109.45 156.033C97.3469 156.033 87.14 148.116 85.727 137.629C85.6527 137.07 85.8943 136.53 86.3591 136.213C86.6008 136.045 86.8983 135.952 87.1958 135.952C87.4375 135.952 87.6792 136.008 87.9023 136.138C92.9964 138.951 100.619 140.572 108.818 140.572C117.742 140.572 126.034 138.635 130.998 135.393C131.24 135.226 131.519 135.151 131.816 135.151C132.076 135.151 132.337 135.226 132.578 135.356C133.062 135.654 133.341 136.194 133.303 136.753C132.374 147.576 121.907 156.052 109.469 156.052L109.45 156.033Z" fill="#D96282"/>
<path d="M131.797 136.623C130.942 146.645 121.256 154.562 109.45 154.562C97.6444 154.562 88.4972 147.073 87.1958 137.442C92.2899 140.255 100.08 142.044 108.818 142.044C118.374 142.044 126.796 139.901 131.797 136.623ZM131.797 133.642C131.24 133.642 130.663 133.81 130.18 134.127C125.458 137.219 117.482 139.063 108.818 139.063C100.861 139.063 93.4984 137.517 88.6088 134.816C88.1626 134.574 87.6792 134.443 87.1772 134.443C86.5823 134.443 86.0059 134.611 85.5039 134.965C84.5743 135.598 84.091 136.697 84.2397 137.815C85.7642 149.048 96.5846 157.505 109.432 157.505C122.278 157.505 133.75 148.433 134.735 136.865C134.828 135.729 134.27 134.648 133.303 134.071C132.839 133.791 132.318 133.642 131.779 133.642H131.797Z" fill="#231F20"/>
</svg>
