<svg width="217" height="214" viewBox="0 0 217 214" fill="none" xmlns="http://www.w3.org/2000/svg">
<path d="M107.267 211.018C165.219 211.018 212.199 163.946 212.199 105.88C212.199 47.8143 165.219 0.742493 107.267 0.742493C49.3147 0.742493 2.33508 47.8143 2.33508 105.88C2.33508 163.946 49.3147 211.018 107.267 211.018Z" fill="#E6E7E8"/>
<mask id="mask0_1_14331" style="mask-type:luminance" maskUnits="userSpaceOnUse" x="2" y="0" width="211" height="212">
<path d="M107.267 211.018C165.219 211.018 212.199 163.946 212.199 105.88C212.199 47.8143 165.219 0.742493 107.267 0.742493C49.3147 0.742493 2.33508 47.8143 2.33508 105.88C2.33508 163.946 49.3147 211.018 107.267 211.018Z" fill="white"/>
</mask>
<g mask="url(#mask0_1_14331)">
<path d="M10.2552 66.3138L10.1994 80.2478L5.38412 118.771L1.33112 117.69C1.33112 117.69 -3.63288 81.4213 10.2738 66.3138H10.2552Z" fill="#282828"/>
<path d="M35.5957 68.2698L54.9126 103.403L106.598 87.55L108.624 45.7856L66.6997 33.0997L35.5957 68.2698Z" fill="#282828"/>
<path d="M22.5629 156.344L33.1974 181.418C33.1974 181.418 46.6764 200.195 54.5221 198.388C62.3679 196.581 77.5573 199.562 77.5573 199.562L83.4695 180.505L46.9925 149.154L22.5629 156.325V156.344Z" fill="#282828"/>
<path d="M130.804 168.583L162.261 179.331L193.217 143.919L179.31 106.588L143.558 123L130.804 168.583Z" fill="#282828"/>
<path d="M150.735 10.038L155.661 31.4791C155.661 31.4791 166.724 45.3012 177.972 57.7262L205.301 54.2986C205.301 54.2986 163.303 3.08965 150.735 10.038Z" fill="#282828"/>
<path d="M100.741 1.80432C100.741 1.80432 61.9217 16.2412 56.1769 14.3784C50.432 12.5156 95.3312 -4.04494 100.741 1.80432Z" fill="#282828"/>
<path d="M69.5071 10.69L66.4023 40.6442L39.6673 66.761L7.50353 79.6703L3.46912 114.747L26.337 162.603L47.0296 156.717L56.5114 97.1436L97.6922 79.4654L148.485 125.645C148.485 125.645 145.975 164.056 145.25 164.466C144.525 164.876 75.6052 182.349 75.6052 182.349L74.2108 196.581L92.1147 211.744L155.457 213.402L164.307 170.483L186.487 142.559L211.585 145.763L218.334 55.0438L174.402 25.4063L96.2792 49.5857" stroke="#282828" stroke-miterlimit="10"/>
<path d="M177.953 56.6272L179.961 115.865" stroke="#282828" stroke-miterlimit="10"/>
</g>
<g opacity="0.1">
<path d="M200.542 57.7449C200.821 60.8744 200.988 64.0412 200.988 67.2453C200.988 125.309 154.007 172.383 96.0562 172.383C55.4331 172.383 20.2203 149.228 2.78125 115.399C7.57793 169.011 52.5143 211.018 107.267 211.018C165.218 211.018 212.199 163.944 212.199 105.88C212.199 88.5187 207.979 72.1631 200.542 57.7449Z" fill="#231F20"/>
</g>
<path d="M75.1406 102.937C75.1406 117.486 68.9495 129.277 61.3269 129.277C53.7042 129.277 47.5132 117.486 47.5132 102.937C47.5132 88.3883 53.7042 76.5966 61.3269 76.5966C68.9495 76.5966 75.1406 88.3883 75.1406 102.937Z" fill="#231F20"/>
<path d="M72.0171 92.8404C72.0171 99.0995 69.4328 104.185 66.235 104.185C63.0373 104.185 60.453 99.0995 60.453 92.8404C60.453 86.5814 63.0373 81.4958 66.235 81.4958C69.4328 81.4958 72.0171 86.5814 72.0171 92.8404Z" fill="white"/>
<path d="M58.2592 100.087C58.2592 102.359 57.3296 104.185 56.1584 104.185C54.9871 104.185 54.0575 102.341 54.0575 100.087C54.0575 97.8328 54.9871 95.9886 56.1584 95.9886C57.3296 95.9886 58.2592 97.8328 58.2592 100.087Z" fill="white"/>
<path d="M64.6362 110.072C64.6362 112.344 63.688 114.17 62.5353 114.17C61.3826 114.17 60.4344 112.326 60.4344 110.072C60.4344 107.818 61.364 105.973 62.5353 105.973C63.7066 105.973 64.6362 107.818 64.6362 110.072Z" fill="white"/>
<path d="M167.021 102.937C167.021 117.486 160.83 129.277 153.207 129.277C145.585 129.277 139.394 117.486 139.394 102.937C139.394 88.3883 145.585 76.5966 153.207 76.5966C160.83 76.5966 167.021 88.3883 167.021 102.937Z" fill="#231F20"/>
<path d="M163.898 92.8404C163.898 99.0995 161.313 104.185 158.116 104.185C154.918 104.185 152.334 99.0995 152.334 92.8404C152.334 86.5814 154.918 81.4958 158.116 81.4958C161.313 81.4958 163.898 86.5814 163.898 92.8404Z" fill="white"/>
<path d="M150.14 100.087C150.14 102.359 149.21 104.185 148.039 104.185C146.868 104.185 145.938 102.341 145.938 100.087C145.938 97.8328 146.868 95.9886 148.039 95.9886C149.21 95.9886 150.14 97.8328 150.14 100.087Z" fill="white"/>
<path d="M156.517 110.072C156.517 112.344 155.587 114.17 154.416 114.17C153.245 114.17 152.315 112.326 152.315 110.072C152.315 107.818 153.245 105.973 154.416 105.973C155.587 105.973 156.517 107.818 156.517 110.072Z" fill="white"/>
<path d="M66.2351 130.544C66.2351 133.357 61.0479 135.648 54.6524 135.648C48.2568 135.648 43.0697 133.375 43.0697 130.544C43.0697 127.712 48.2568 125.44 54.6524 125.44C61.0479 125.44 66.2351 127.712 66.2351 130.544Z" fill="#D96282"/>
<path d="M171.465 130.544C171.465 133.357 166.277 135.648 159.882 135.648C153.486 135.648 148.299 133.375 148.299 130.544C148.299 127.712 153.486 125.44 159.882 125.44C166.277 125.44 171.465 127.712 171.465 130.544Z" fill="#D96282"/>
<path d="M98.3059 130.6C94.7176 129.948 92.152 134.884 91.8545 137.734C91.3897 141.982 93.1559 143.956 97.023 145.335C104.014 147.812 108.903 143.043 108.513 136.207C107.267 137.623 108.122 141.758 109.275 143.323C111.134 145.875 114.89 146.452 117.883 146.024C122.196 145.391 125.692 140.994 124.669 136.691C124.372 135.462 120.449 129.128 119.259 131.289" stroke="#231F20" stroke-width="2.32" stroke-linecap="round" stroke-linejoin="round"/>
<path d="M58.2592 65.8109C58.2592 65.8109 46.8067 63.4823 43.9249 75.0318" stroke="#231F20" stroke-width="2.07" stroke-linecap="round" stroke-linejoin="round"/>
<path d="M154.416 65.8109C154.416 65.8109 165.868 63.4823 168.75 75.0318" stroke="#231F20" stroke-width="2.07" stroke-linecap="round" stroke-linejoin="round"/>
</svg>
